<?xml version="1.0" encoding="UTF-8"?>
<svg width="16px" height="16px" viewBox="0 0 16 16" version="1.1" xmlns="http://www.w3.org/2000/svg" xmlns:xlink="http://www.w3.org/1999/xlink">
    <!-- Generator: Sketch 49.3 (51167) - http://www.bohemiancoding.com/sketch -->
    <title>icon_yingshi_white_slice</title>
    <desc>Created with Sketch.</desc>
    <defs></defs>
    <g id="Page-1" stroke="none" stroke-width="1" fill="none" fill-rule="evenodd">
        <g id="Artboard" transform="translate(-40.000000, -211.000000)" fill-rule="nonzero">
            <g id="icon-yingshi-white" transform="translate(40.000000, 211.000000)">
                <rect id="Rectangle-path" fill="#000000" opacity="0" x="0" y="0" width="16" height="16"></rect>
                <path d="M11.428125,12.890625 L4.5890625,12.890625 C4.4453125,12.890625 4.3296875,13.00625 4.3296875,13.15 C4.3296875,13.29375 4.4453125,13.409375 4.5890625,13.409375 L11.428125,13.409375 C11.571875,13.409375 11.6875,13.2921875 11.6875,13.15 C11.6875,13.00625 11.571875,12.890625 11.428125,12.890625 Z M13.1375,2.471875 L2.88125,2.471875 C2.4234375,2.471875 2.0515625,2.84375 2.0515625,3.3015625 L2.0515625,10.7234375 C2.0515625,11.18125 2.4234375,11.553125 2.88125,11.553125 L13.1375,11.553125 C13.5953125,11.553125 13.9671875,11.18125 13.9671875,10.7234375 L13.9671875,3.3015625 C13.9671875,2.84375 13.5953125,2.471875 13.1375,2.471875 Z M9.88125,7.3890625 L7.146875,8.9671875 C7.08125,9.0046875 7.00625,9.025 6.9296875,9.025 C6.690625,9.025 6.4953125,8.8296875 6.4953125,8.590625 L6.4953125,5.4359375 C6.4953125,5.196875 6.690625,5.0015625 6.9296875,5.0015625 C7.00625,5.0015625 7.0796875,5.021875 7.146875,5.059375 L9.88125,6.6375 C10.0171875,6.715625 10.0984375,6.85625 10.0984375,7.0125 C10.096875,7.1671875 10.0140625,7.3109375 9.88125,7.3890625 Z" id="Shape" fill="#FFFFFF"></path>
            </g>
        </g>
    </g>
</svg>