<?xml version="1.0" encoding="UTF-8"?>
<svg width="24px" height="24px" viewBox="0 0 24 24" version="1.1" xmlns="http://www.w3.org/2000/svg" xmlns:xlink="http://www.w3.org/1999/xlink">
    <!-- Generator: Sketch 49.3 (51167) - http://www.bohemiancoding.com/sketch -->
    <title>icon_right_circle_slice</title>
    <desc>Created with Sketch.</desc>
    <defs></defs>
    <g id="Page-1" stroke="none" stroke-width="1" fill="none" fill-rule="evenodd">
        <g id="Artboard" transform="translate(-248.000000, -70.000000)" fill-rule="nonzero">
            <g id="icon-right-circle" transform="translate(248.000000, 70.000000)">
                <rect id="Rectangle-path" fill="#000000" opacity="0" x="0" y="0" width="24" height="24"></rect>
                <path d="M15.6257813,11.8476562 L9.86015625,7.67578125 C9.7359375,7.58671875 9.5625,7.6734375 9.5625,7.828125 L9.5625,8.92734375 C9.5625,9.16640625 9.67734375,9.39375 9.871875,9.534375 L13.2796875,12 L9.871875,14.465625 C9.67734375,14.60625 9.5625,14.83125 9.5625,15.0726562 L9.5625,16.171875 C9.5625,16.3242188 9.7359375,16.4132812 9.86015625,16.3242188 L15.6257813,12.1523438 C15.7289063,12.0773437 15.7289063,11.9226562 15.6257813,11.8476562 Z" id="Shape" fill="#333333"></path>
                <path d="M12,1.5 C6.2015625,1.5 1.5,6.2015625 1.5,12 C1.5,17.7984375 6.2015625,22.5 12,22.5 C17.7984375,22.5 22.5,17.7984375 22.5,12 C22.5,6.2015625 17.7984375,1.5 12,1.5 Z M12,20.71875 C7.1859375,20.71875 3.28125,16.8140625 3.28125,12 C3.28125,7.1859375 7.1859375,3.28125 12,3.28125 C16.8140625,3.28125 20.71875,7.1859375 20.71875,12 C20.71875,16.8140625 16.8140625,20.71875 12,20.71875 Z" id="Shape" fill="#333333"></path>
            </g>
        </g>
    </g>
</svg>