<?xml version="1.0" encoding="UTF-8"?>
<svg width="24px" height="24px" viewBox="0 0 24 24" version="1.1" xmlns="http://www.w3.org/2000/svg" xmlns:xlink="http://www.w3.org/1999/xlink">
    <!-- Generator: Sketch 49.3 (51167) - http://www.bohemiancoding.com/sketch -->
    <title>icon_left_circle_slice</title>
    <desc>Created with Sketch.</desc>
    <defs></defs>
    <g id="Page-1" stroke="none" stroke-width="1" fill="none" fill-rule="evenodd">
        <g id="Artboard" transform="translate(-192.000000, -70.000000)" fill-rule="nonzero">
            <g id="icon-left-circle" transform="translate(192.000000, 70.000000)">
                <rect id="Rectangle-path" fill="#000000" opacity="0" x="0" y="0" width="24" height="24"></rect>
                <path d="M14.1398438,7.67578125 L8.37421875,11.8476562 C8.27109375,11.9226562 8.27109375,12.075 8.37421875,12.15 L14.1398438,16.321875 C14.2640625,16.4109375 14.4375,16.321875 14.4375,16.1695312 L14.4375,15.0703125 C14.4375,14.83125 14.3226563,14.6039062 14.128125,14.4632812 L10.7203125,12 L14.128125,9.534375 C14.3226562,9.39375 14.4375,9.16875 14.4375,8.92734375 L14.4375,7.828125 C14.4375,7.67578125 14.2640625,7.58671875 14.1398438,7.67578125 Z" id="Shape" fill="#000000"></path>
                <path d="M12,1.5 C6.2015625,1.5 1.5,6.2015625 1.5,12 C1.5,17.7984375 6.2015625,22.5 12,22.5 C17.7984375,22.5 22.5,17.7984375 22.5,12 C22.5,6.2015625 17.7984375,1.5 12,1.5 Z M12,20.71875 C7.1859375,20.71875 3.28125,16.8140625 3.28125,12 C3.28125,7.1859375 7.1859375,3.28125 12,3.28125 C16.8140625,3.28125 20.71875,7.1859375 20.71875,12 C20.71875,16.8140625 16.8140625,20.71875 12,20.71875 Z" id="Shape" fill="#333333"></path>
            </g>
        </g>
    </g>
</svg>