<?xml version="1.0" encoding="UTF-8"?>
<svg width="36px" height="36px" viewBox="0 0 36 36" version="1.1" xmlns="http://www.w3.org/2000/svg" xmlns:xlink="http://www.w3.org/1999/xlink">
    <!-- Generator: Sketch 49.3 (51167) - http://www.bohemiancoding.com/sketch -->
    <title>icon_update_slice</title>
    <desc>Created with Sketch.</desc>
    <defs></defs>
    <g id="Page-1" stroke="none" stroke-width="1" fill="none" fill-rule="evenodd">
        <g id="Artboard" fill-rule="nonzero">
            <g id="icon-Update">
                <rect id="Rectangle-path" fill="#000000" opacity="0" x="0" y="0" width="36" height="36"></rect>
                <path d="M31.248,12.4831758 C30.5269102,10.7808047 29.4986602,9.25330078 28.1845195,7.93919531 C26.8703789,6.62508984 25.3429102,5.59680469 23.6405391,4.87571484 C21.8784023,4.12906641 20.0053125,3.75359766 18.0768164,3.75359766 C16.1483203,3.75359766 14.2752305,4.13332031 12.5130937,4.87571484 C10.8107227,5.59680469 9.28321875,6.62505469 7.96911328,7.93919531 C6.65500781,9.25330078 5.62672266,10.7808047 4.90563281,12.4831758 C4.15898437,14.2453125 3.78351562,16.1184023 3.78351562,18.0468984 C3.78351562,19.9753945 4.16323828,21.8484844 4.90563281,23.6106211 C5.62672266,25.3129922 6.65497266,26.8404961 7.96911328,28.1546016 C9.28321875,29.468707 10.8107227,30.4969922 12.5130937,31.218082 C14.2752305,31.9647305 16.1483203,32.3401992 18.0768164,32.3401992 C20.0053125,32.3401992 21.8784023,31.9604766 23.6405391,31.218082 C25.3429102,30.4969922 26.8704141,29.4687422 28.1845195,28.1546016 C29.498625,26.8404961 30.5269102,25.3129922 31.248,23.6106211 C31.9946484,21.8484844 32.3701172,19.9753945 32.3701172,18.0468984 C32.3701172,16.1184023 31.9903945,14.2453125 31.248,12.4831758 Z" id="Shape" fill="#64A3FF"></path>
                <path d="M18.0768164,10.6186992 C17.3941172,10.6186992 16.8394922,11.1776484 16.8394922,11.8560234 L16.8394922,20.3040352 C16.8394922,20.9867344 17.3941523,21.5413594 18.0768164,21.5413594 C18.7552266,21.5413594 19.3141406,20.9866992 19.3141406,20.3040352 L19.3141406,11.8560234 C19.3141406,11.1776133 18.7551914,10.6186992 18.0768164,10.6186992 Z M18.0768164,22.8511758 C17.3941172,22.8511758 16.8394922,23.410125 16.8394922,24.0885 C16.8394922,24.766875 17.3941523,25.3258242 18.0768164,25.3258242 C18.7552266,25.3258242 19.3141406,24.766875 19.3141406,24.0885 C19.3141406,23.410125 18.7551914,22.8511758 18.0768164,22.8511758 Z" id="Shape" fill="#FFFFFF"></path>
            </g>
        </g>
    </g>
</svg>