<?xml version="1.0" encoding="UTF-8"?>
<svg width="169px" height="48px" viewBox="0 0 169 48" version="1.1" xmlns="http://www.w3.org/2000/svg" xmlns:xlink="http://www.w3.org/1999/xlink">
    <!-- Generator: Sketch 49.3 (51167) - http://www.bohemiancoding.com/sketch -->
    <title>icon_logo_login_slice</title>
    <desc>Created with Sketch.</desc>
    <defs>
        <polygon id="path-1" points="0 48 169 48 169 0 0 0"></polygon>
    </defs>
    <g id="Page-1" stroke="none" stroke-width="1" fill="none" fill-rule="evenodd">
        <g id="Artboard" transform="translate(-164.000000, -64.000000)">
            <g id="icon-logo-login" transform="translate(164.000000, 64.000000)">
                <path d="M14,5.14300534 L6.15423667,5.14300534 L6.15423667,8.71439995 C6.15423667,9.33396728 6.24755228,9.73879968 6.43490874,9.92863781 C6.6222652,10.1677509 6.99697812,10.2860107 7.558564,10.2860107 L10.7859301,10.2860107 L10.7859301,12 L7.558564,12 C5.18554333,12 4,10.9053187 4,8.71439995 L4,0 L6.15423667,0 L6.15423667,3.50033498 L14,3.50033498 L14,5.14300534 Z" id="Fill-1" fill="#7E7E7F"></path>
                <polygon id="Fill-3" fill="#7E7E7F" points="23 4 17.9331651 12 16.0666055 12 11 4 13.3108255 4 16.9553669 9.78165619 20.688945 4"></polygon>
                <path d="M37,9.51266248 C37,11.1712943 35.4929006,12 32.4822515,12 L26.4908722,12 L26.4908722,10.38677 L32.4822515,10.38677 C33.3321501,10.38677 33.9213996,10.3193995 34.25,10.1849027 C34.5768256,10.0504058 34.7411258,9.82681394 34.7411258,9.51266248 C34.7411258,8.93073778 34.1179006,8.63855495 32.875,8.63855495 L30.4196247,8.63855495 C27.4728702,8.63855495 26,7.85500702 26,6.28571429 C26,5.43455178 26.4908722,4.80649295 27.4728702,4.40324648 C28.1924442,4.13425276 29.076572,4 30.1247465,4 L36.214503,4 L36.214503,5.54610362 L30.1247465,5.54610362 C28.880071,5.54610362 28.2588742,5.7928846 28.2588742,6.28571429 C28.2588742,6.6447794 28.5197769,6.86861537 29.0443712,6.95795448 C29.2406187,7.00311222 29.6982759,7.02508086 30.4196247,7.02508086 L32.875,7.02508086 C34.1179006,7.02508086 35.1341278,7.24989321 35.9193712,7.69732105 C36.6391988,8.10081162 37,8.70592543 37,9.51266248" id="Fill-5" fill="#7E7E7F"></path>
                <path d="M48.0388433,7.5 C48.0388433,6.71577389 47.6681409,6.04616545 46.9302582,5.49243144 C46.2478487,4.93844607 45.4232339,4.66170474 44.4572944,4.66170474 C43.490034,4.66170474 42.66674,4.93844607 41.9843306,5.49243144 C41.3023614,6.04616545 40.9611567,6.71577389 40.9611567,7.5 C40.9611567,8.28523153 41.3023614,8.95383455 41.9843306,9.50756856 C42.66674,10.0615539 43.490034,10.3382953 44.4572944,10.3382953 C45.4232339,10.3382953 46.2478487,10.0615539 46.9302582,9.50756856 C47.6681409,8.95383455 48.0388433,8.28523153 48.0388433,7.5 M50,7.5 C50,8.74621572 49.4591355,9.80843993 48.3796078,10.6844104 C47.2994197,11.5608837 45.9922754,12 44.4572944,12 C42.9223134,12 41.6138483,11.5608837 40.534981,10.6844104 C39.5113668,9.80843993 39,8.74621572 39,7.5 C39,6.25378428 39.5113668,5.19281685 40.534981,4.31533821 C41.6138483,3.43911635 42.9223134,3 44.4572944,3 C45.9922754,3 47.2994197,3.43911635 48.3796078,4.31533821 C49.4591355,5.19281685 50,6.25378428 50,7.5" id="Fill-7" fill="#7E7E7F"></path>
                <path d="M63,12 L60.7978827,12 L60.7978827,8.16805492 C60.7978827,7.09235698 60.5229141,6.37595728 59.9722663,6.01690313 C59.5438268,5.70398169 58.7179736,5.54630053 57.4951804,5.54630053 L55.1099874,5.54630053 L55.1099874,12 L53,12 L53,4 L57.4951804,4 C59.2686214,4 60.5830708,4.26898551 61.4401866,4.80671243 C62.4794306,5.47893211 63,6.59978642 63,8.16805492 L63,12 Z" id="Fill-9" fill="#7E7E7F"></path>
                <path d="M74.8057633,8.52418624 L68.2228069,8.52418624 L68.2228069,9.86436379 C68.2228069,10.1815327 68.6129372,10.4535298 69.0678429,10.4535298 L74.8057633,10.4535298 L74.8057633,8.52418624 Z M77,6.18539767 L77,12 L68.6516054,12 C67.1999463,12 66.0285701,11.1385953 66.0285701,10.1259738 L66.0285701,6.90089981 L74.7505933,6.94655474 L74.7505933,6.18539767 C74.7505933,5.86822876 74.3821369,5.59623166 73.9050647,5.59623166 L66,5.59623166 L66,4 L74.3565223,4 C75.8301017,4 77,5.17325925 77,6.18539767 Z" id="Fill-11" fill="#7E7E7F"></path>
                <path d="M90,4 L90,5.58976894 L83.6190718,5.58976894 C82.8938334,5.58976894 82.3005722,5.99975287 82.3005722,6.50092673 L82.3005722,12 L80,12 L80,5.87050538 C80,4.8375139 81.2116974,4 82.7069294,4 L90,4 Z" id="Fill-13" fill="#7E7E7F"></path>
                <polyline id="Fill-15" fill="#303030" points="17 48 23.8476585 48 28.4997597 41.6922604 33.1107663 48 40 48 31.6121351 37.2388271 31.6121351 28 25.387144 28 25.387144 37.2388271"></polyline>
                <polygon id="Fill-17" fill="#303030" points="33.4912114 25.8518231 33.4502365 40 39 40 39 23.089917 31.4780893 23.089917 31.4780893 13 24.4823328 13 24.4823328 23.089917 17 23.089917 17 40 22.4692107 40 22.4692107 25.8518231"></polygon>
                <mask id="mask-2" fill="white">
                    <use xlink:href="#path-1"></use>
                </mask>
                <g id="Clip-20"></g>
                <polygon id="Fill-19" fill="#303030" mask="url(#mask-2)" points="85 48 92 48 92 13 85 13"></polygon>
                <polygon id="Fill-21" fill="#303030" mask="url(#mask-2)" points="93 16 126 16 126 13 93 13"></polygon>
                <polygon id="Fill-22" fill="#303030" mask="url(#mask-2)" points="120 48 126 48 126 13 120 13"></polygon>
                <polygon id="Fill-23" fill="#64A3FF" mask="url(#mask-2)" points="119.168632 12 114.535775 32.4527456 113.828962 32.4527456 110.609731 18.9627681 102.050599 19.0351144 98.6740664 33.7584344 97.5748111 33.7584344 92 15.4812606 92 35.7893138 95.4548353 45 101.815226 45 106.75365 28.9672874 111.002174 45 118.147912 45 126 12"></polygon>
                <path d="M5.03085089,40.3285549 L8.9689169,40.3285549 L8.9689169,18.6712076 L5.03085089,18.6712076 L5.03085089,40.3285549 Z M0,44 L14,44 L14,15 L0,15 L0,44 Z" id="Fill-24" fill="#303030" mask="url(#mask-2)"></path>
                <polygon id="Fill-25" fill="#303030" mask="url(#mask-2)" points="132 48 145 48 145 45 132 45"></polygon>
                <polygon id="Fill-26" fill="#303030" mask="url(#mask-2)" points="143.980943 13 141.122553 23.540269 145 23.540269 141.671746 38.2753311 144.530137 38.2753311 144.530137 41 132.784465 41 135.877674 29.0613855 132 29.0613855 136.307419 13"></polygon>
                <path d="M155.526171,18.3383086 L155.159753,19.1565772 L157.886801,21.896859 L161.713576,18.3383086 L155.526171,18.3383086 Z M158.049863,13 L156.787782,15.6692751 L168.267163,15.6692751 L168.267163,20.5445906 L162.16129,26.1674093 L169,33 L160.166371,33 L157.561148,30.4379596 L154.79357,33 L146.040766,33 L153.327897,26.2029127 L149.990072,22.8933691 L146,22.8933691 L150.193193,13 L158.049863,13 Z" id="Fill-27" fill="#303030" mask="url(#mask-2)"></path>
                <path d="M154.237106,45.3977258 L159.76266,45.3977258 L159.76266,38.6025036 L154.237106,38.6025036 L154.237106,45.3977258 Z M147,48 L167,48 L167,36 L147,36 L147,48 Z" id="Fill-28" fill="#303030" mask="url(#mask-2)"></path>
                <polygon id="Fill-29" fill="#303030" mask="url(#mask-2)" points="53.0271221 13 50.6174269 23.5267305 54 23.5267305 51.1236654 38.2785878 53.5722847 38.2785878 53.5722847 41 43.7787073 41 46.4214972 29.0407554 43 29.0407554 46.653692 13"></polygon>
                <polygon id="Fill-30" fill="#303030" mask="url(#mask-2)" points="43 47 54 47 54 44 43 44"></polygon>
                <polygon id="Fill-31" fill="#303030" mask="url(#mask-2)" points="55 48 61 48 61 19 55 19"></polygon>
                <polygon id="Fill-32" fill="#303030" mask="url(#mask-2)" points="81.9857787 44.6432367 81.9857787 19 76 19 76.2442847 48 82 48"></polygon>
                <polygon id="Fill-33" fill="#303030" mask="url(#mask-2)" points="69.6461133 24.4631599 70.6026055 18.2319404 71.2867792 13 66.6256854 13 65.9410458 18.2319404 65.9405799 18.2319404 62 41 66.7076838 41 69.0367165 31.609483 70.6948536 41 75 41 72.6241444 24.4631599"></polygon>
                <polygon id="Fill-34" fill="#303030" mask="url(#mask-2)" points="55 22 81 22 81 19 55 19"></polygon>
                <polygon id="Fill-35" fill="#303030" mask="url(#mask-2)" points="17 19 22 19 22 15 17 15"></polygon>
                <polygon id="Fill-36" fill="#303030" mask="url(#mask-2)" points="33 19 38 19 38 15 33 15"></polygon>
            </g>
        </g>
    </g>
</svg>